<mxfile host="app.diagrams.net" modified="2022-11-07T10:51:02.113Z" agent="5.0 (Windows NT 10.0; Win64; x64) AppleWebKit/537.36 (KHTML, like Gecko) Chrome/107.0.0.0 Safari/537.36" etag="jJAZbfD2EO3392k9yfgT" version="20.5.1" type="github">
  <diagram id="gDaaUq9as19MkLE7DopK" name="第 1 页">
    <mxGraphModel dx="1697" dy="949" grid="1" gridSize="10" guides="1" tooltips="1" connect="1" arrows="1" fold="1" page="1" pageScale="1" pageWidth="827" pageHeight="1169" math="0" shadow="0">
      <root>
        <mxCell id="0" />
        <mxCell id="1" parent="0" />
        <mxCell id="aFZmMvNxy5tCpCWpmGHM-3" value="" style="edgeStyle=orthogonalEdgeStyle;rounded=0;orthogonalLoop=1;jettySize=auto;html=1;" edge="1" parent="1" source="aFZmMvNxy5tCpCWpmGHM-1" target="aFZmMvNxy5tCpCWpmGHM-2">
          <mxGeometry relative="1" as="geometry" />
        </mxCell>
        <mxCell id="aFZmMvNxy5tCpCWpmGHM-1" value="请求检查" style="rounded=1;whiteSpace=wrap;html=1;" vertex="1" parent="1">
          <mxGeometry x="320" y="80" width="120" height="60" as="geometry" />
        </mxCell>
        <mxCell id="aFZmMvNxy5tCpCWpmGHM-2" value="参数处理" style="rounded=1;whiteSpace=wrap;html=1;" vertex="1" parent="1">
          <mxGeometry x="320" y="180" width="120" height="60" as="geometry" />
        </mxCell>
      </root>
    </mxGraphModel>
  </diagram>
</mxfile>
